<mxfile host="app.diagrams.net" modified="2024-01-09T09:26:45.685Z" agent="Mozilla/5.0 (Windows NT 10.0; Win64; x64) AppleWebKit/537.36 (KHTML, like Gecko) Chrome/120.0.0.0 Safari/537.36" version="22.1.17" etag="a5Nc9iwDb3zzdW585_wf" type="github">
  <diagram name="Trang-1" id="YUzQId-qfKcjhhe6zChO">
    <mxGraphModel>
      <root>
        <mxCell id="0" />
        <mxCell id="1" parent="0" />
      </root>
    </mxGraphModel>
  </diagram>
</mxfile>
